<svg width="500" height="500">
<polygon points="445,358 318,443 182,376 171,224 298,139 434,206" style="fill:#00ff00;stroke:#00ff00;stroke-width:1"/>
<ellipse cx="308,000000" cy="296,000000" rx="119,000000" ry="115,000000" style="fill:#ffff00;stroke:#000000;stroke-width:1"/>
<polygon points="285,198 246,204 261,168" style="fill:#000000;stroke:#ff0000;stroke-width:1"/>
<polygon points="378,360 215,334 319,206" style="fill:#ffffff;stroke:#00ff00;stroke-width:1"/>
<rect x="282" y="274" width="46" height="47" style="fill:#0000ff;stroke:#ff0000;stroke-width:1"/>
<polygon points="442,253 405,263 378,236 388,199 425,189 452,216" style="fill:#ffffff;stroke:#ff0000;stroke-width:1"/>
<polygon points="426,401 364,391 403,342" style="fill:#000000;stroke:#ff0000;stroke-width:1"/>
<ellipse cx="179,000000" cy="279,000000" rx="30,000000" ry="30,000000" style="fill:#ff0000;stroke:#ffffff;stroke-width:1"/>
<polygon points="272,415 255,423 239,412 240,393 257,385 273,396" style="fill:#0000ff;stroke:#ff0000;stroke-width:1"/>
</svg>